<?xml version="1.0" standalone="no"?>
<!DOCTYPE svg PUBLIC "-//W3C//DTD SVG 20010904//EN"
 "http://www.w3.org/TR/2001/REC-SVG-20010904/DTD/svg10.dtd">
<svg version="1.0" xmlns="http://www.w3.org/2000/svg"
 width="250.000000pt" height="250.000000pt" viewBox="0 0 250.000000 250.000000"
 preserveAspectRatio="xMidYMid meet">
<metadata>
Created by potrace 1.14, written by Peter Selinger 2001-2017
</metadata>
<g transform="translate(0.000000,250.000000) scale(0.100000,-0.100000)"
fill="#000000" stroke="none">
<path d="M1750 1381 c-18 -35 -11 -59 24 -80 37 -23 66 -81 66 -132 0 -22 5
-32 20 -36 11 -3 20 -9 20 -14 0 -17 39 -9 50 10 14 27 13 31 -7 25 -16 -5
-16 -4 1 10 26 21 14 61 -24 81 -16 8 -40 29 -52 45 -12 17 -28 30 -35 30 -7
0 -13 5 -13 11 0 6 7 9 15 5 20 -7 19 14 -1 42 -17 25 -36 30 -28 7 4 -10 0
-15 -11 -15 -11 0 -15 5 -11 15 8 22 -1 19 -14 -4z m148 -153 c-3 -7 -12 -14
-21 -16 -12 -2 -15 1 -11 12 7 19 38 22 32 4z"/>
<path d="M1587 1383 c-13 -12 -7 -46 11 -59 15 -12 15 -13 1 -14 -10 0 -21
-16 -29 -42 -7 -24 -24 -53 -37 -66 l-25 -23 21 -20 c27 -25 41 -17 41 24 0
34 34 117 47 117 11 0 63 -84 63 -102 0 -9 7 -19 16 -22 22 -9 24 -8 24 11 0
9 11 35 25 59 15 26 21 45 15 49 -5 3 -17 -10 -27 -29 -9 -20 -24 -36 -33 -36
-21 0 -63 86 -55 111 4 11 1 26 -5 34 -16 19 -31 19 -24 0 4 -10 0 -15 -11
-15 -11 0 -15 5 -11 15 6 16 3 19 -7 8z m123 -179 c0 -8 -4 -12 -10 -9 -5 3
-10 10 -10 16 0 5 5 9 10 9 6 0 10 -7 10 -16z m-156 -20 c9 -24 7 -27 -9 -10
-17 17 -19 26 -6 26 5 0 12 -7 15 -16z"/>
<path d="M1207 1344 c-4 -4 -7 -25 -7 -46 0 -33 -3 -38 -22 -39 -22 0 -22 -1
-3 -9 23 -10 239 -13 273 -4 38 11 24 22 -15 13 -21 -5 -78 -9 -127 -9 -76 0
-87 2 -77 14 24 28 2 104 -22 80z"/>
<path d="M1299 1343 c0 -1 -1 -20 -2 -40 0 -28 4 -39 16 -41 14 -3 17 5 17 41
0 32 -4 44 -15 44 -8 0 -15 -2 -16 -4z"/>
<path d="M1360 1303 c0 -31 4 -43 14 -43 8 0 16 8 18 17 2 13 14 17 43 18 35
0 40 3 40 24 0 22 -4 23 -58 25 l-57 1 0 -42z"/>
<path d="M607 1333 c-7 -12 -47 -157 -47 -171 0 -7 9 -12 20 -12 11 0 20 7 20
15 0 10 10 15 30 15 20 0 30 -5 30 -15 0 -9 9 -15 25 -15 14 0 25 1 25 3 0 1
-13 43 -28 92 -23 73 -32 91 -49 93 -12 2 -23 0 -26 -5z m33 -88 c0 -14 -4
-25 -10 -25 -5 0 -10 11 -10 25 0 14 5 25 10 25 6 0 10 -11 10 -25z"/>
<path d="M730 1245 c0 -88 1 -95 20 -95 17 0 20 7 20 48 l1 47 27 -47 c16 -29
34 -48 45 -48 15 0 17 11 17 96 0 86 -2 95 -17 92 -13 -2 -19 -16 -23 -48 l-5
-45 -25 48 c-15 29 -32 47 -42 47 -16 0 -18 -11 -18 -95z"/>
<path d="M890 1330 c0 -6 11 -33 25 -60 14 -27 25 -65 25 -85 0 -28 4 -35 20
-35 17 0 20 7 20 40 0 24 11 62 25 90 30 59 30 60 5 60 -12 0 -26 -12 -36 -32
l-17 -33 -15 33 c-15 30 -52 46 -52 22z"/>
<path d="M1060 1320 c-25 -25 -28 -114 -4 -148 27 -39 114 -22 114 23 0 23
-20 28 -40 10 -29 -26 -50 -12 -50 32 0 53 13 72 40 56 44 -28 69 -3 32 30
-25 23 -68 21 -92 -3z"/>
<path d="M1200 1180 c0 -33 3 -40 20 -40 17 0 20 7 20 40 0 33 -3 40 -20 40
-17 0 -20 -7 -20 -40z"/>
<path d="M1299 1215 c-7 -37 0 -70 14 -73 14 -3 17 4 17 37 0 30 -4 41 -15 41
-8 0 -15 -2 -16 -5z"/>
<path d="M1360 1180 l0 -41 58 3 c50 3 57 6 60 26 3 20 -1 22 -38 22 -27 0
-43 5 -46 15 -13 32 -34 16 -34 -25z"/>
</g>
</svg>
